<svg preserveAspectRatio="none" overflow="visible" style="display: block;" width="29" height="29" viewBox="0 0 29 29" fill="none" xmlns="http://www.w3.org/2000/svg">
<g id="Group 12">
<path id="Rectangle 15 (Stroke)" fill-rule="evenodd" clip-rule="evenodd" d="M28.8359 14.5C28.8359 6.49187 22.3808 0 14.4179 0C6.45513 0 1.55346e-06 6.49187 1.55346e-06 14.5C1.55346e-06 22.5081 6.45513 29 14.4179 29C17.2655 29 19.9231 28.1686 22.1601 26.7341L26.7588 28.3528C28.0994 28.8247 29.3821 27.5164 28.8941 26.1749L27.1347 21.3384C28.2204 19.3002 28.8359 16.9708 28.8359 14.5ZM14.4179 2.41667C21.0536 2.41667 26.4329 7.82656 26.4329 14.5C26.4329 16.7352 25.8306 18.8252 24.781 20.6188C24.5987 20.9303 24.5647 21.3074 24.6881 21.6468L26.1136 25.5653L22.3881 24.254C22.023 24.1255 21.6188 24.1816 21.3019 24.4048C19.3527 25.7778 16.9806 26.5833 14.4179 26.5833C7.78227 26.5833 2.40299 21.1734 2.40299 14.5C2.40299 7.82656 7.78227 2.41667 14.4179 2.41667Z" fill="white"/>
</g>
</svg>
