<svg preserveAspectRatio="none" overflow="visible" style="display: block;" width="29.3897" height="29.3897" viewBox="0 0 29.3897 29.3897" fill="none" xmlns="http://www.w3.org/2000/svg">
<path id="Rectangle 2 (Stroke)" fill-rule="evenodd" clip-rule="evenodd" d="M15.7951 2.7847C15.1465 2.31404 14.2432 2.31404 13.5945 2.7847L3.28237 10.2669C2.83828 10.5891 2.57804 11.0876 2.57804 11.6161V25.2558C2.57804 26.1959 3.386 26.958 4.38267 26.958H25.007C26.0037 26.958 26.8116 26.1959 26.8116 25.2558V11.6161C26.8116 11.0876 26.5514 10.5891 26.1073 10.2669L15.7951 2.7847ZM12.0227 0.857271C13.598 -0.285757 15.7916 -0.285757 17.367 0.857271L27.6792 8.33943C28.7577 9.12196 29.3897 10.3326 29.3897 11.6161V25.2558C29.3897 27.5389 27.4275 29.3897 25.007 29.3897H4.38267C1.96219 29.3897 0 27.5389 0 25.2558V11.6161C0 10.3326 0.631998 9.12196 1.71051 8.33943L12.0227 0.857271Z" fill="#C32FAE"/>
</svg>
